<svg xmlns="http://www.w3.org/2000/svg" width="154" height="169.247" viewBox="0 0 154 169.247">
  <g id="shield-lock-line-icon" transform="translate(-0.001)" opacity="0.39">
    <path id="Path_12" data-name="Path 12" d="M76.735,0c28.715,18.2,54.655,26.813,76.919,24.777,3.888,78.643-25.154,125.087-76.621,144.47C27.332,151.1-2.066,106.66.114,23.584,26.249,24.952,51.89,19.3,76.735,0ZM57.1,76.446h1.981V71.858a18.869,18.869,0,0,1,5.23-13.076,17.4,17.4,0,0,1,25.382,0,18.869,18.869,0,0,1,5.23,13.076v4.588H96.9a2.933,2.933,0,0,1,2.924,2.924v30.9a2.933,2.933,0,0,1-2.924,2.924H57.1a2.932,2.932,0,0,1-2.924-2.924V79.37A2.931,2.931,0,0,1,57.1,76.446Zm7.518,0H89.385V71.858a13.334,13.334,0,0,0-3.672-9.249,11.911,11.911,0,0,0-17.422,0,13.33,13.33,0,0,0-3.672,9.249v4.588ZM74.6,96.8l-3.155,8.264h11.11l-2.923-8.377A5.755,5.755,0,1,0,74.6,96.8ZM76.766,9.717c25.417,16.111,48.38,23.734,68.087,21.931,3.441,69.612-22.266,110.724-67.821,127.88C33.037,143.47,7.012,104.131,8.943,30.592,32.078,31.8,54.774,26.8,76.766,9.717Z" fill="#b8b8b8" fill-rule="evenodd"/>
  </g>
</svg>
